<svg width="24" height="24" viewBox="0 0 24 24" fill="none" xmlns="http://www.w3.org/2000/svg">
<path d="M5.63604 18.3642C2.12132 14.8494 2.12132 9.15095 5.63604 5.63623M18.364 5.63623C21.8787 9.15095 21.8787 14.8494 18.364 18.3642M8.46447 15.5357C6.51184 13.5831 6.51184 10.4173 8.46447 8.46466M15.5355 8.46466C17.4882 10.4173 17.4882 13.5831 15.5355 15.5357M13 12.0002C13 12.5525 12.5523 13.0002 12 13.0002C11.4477 13.0002 11 12.5525 11 12.0002C11 11.4479 11.4477 11.0002 12 11.0002C12.5523 11.0002 13 11.4479 13 12.0002Z" stroke="#111827" stroke-width="2" stroke-linecap="round" stroke-linejoin="round"/>
</svg>
