<svg width="24" height="24" viewBox="0 0 24 24" fill="none" xmlns="http://www.w3.org/2000/svg">
<path d="M13.5 3.67709L12.7503 4.33882C12.764 4.35438 12.7782 4.36952 12.7929 4.38419L13.5 3.67709ZM20.3229 13.5L19.6612 12.7503C19.6456 12.764 19.6305 12.7782 19.6158 12.7929L20.3229 13.5ZM20.5 10.6771L21.2497 10.0154C21.236 9.99979 21.2218 9.98466 21.2071 9.96998L20.5 10.6771ZM10.6771 20.5L9.96998 21.2071C9.98466 21.2218 9.99979 21.236 10.0154 21.2497L10.6771 20.5ZM13.3229 20.5L13.9846 21.2497C14.0002 21.236 14.0153 21.2218 14.03 21.2071L13.3229 20.5ZM3.67709 13.5L4.38419 12.7929L4.36217 12.7709L4.33882 12.7503L3.67709 13.5ZM7 6C6.44772 6 6 6.44772 6 7C6 7.55228 6.44772 8 7 8V6ZM7.01 8C7.56228 8 8.01 7.55228 8.01 7C8.01 6.44772 7.56228 6 7.01 6V8ZM4 7C4 5.34315 5.34315 4 7 4V2C4.23858 2 2 4.23858 2 7H4ZM4 12V7H2V12H4ZM7 4H12V2H7V4ZM12 4C12.2985 4 12.5656 4.12956 12.7503 4.33882L14.2497 3.01535C13.7015 2.3942 12.8962 2 12 2V4ZM20 12C20 12.2985 19.8704 12.5656 19.6612 12.7503L20.9846 14.2497C21.6058 13.7015 22 12.8962 22 12H20ZM19.7503 11.3388C19.9064 11.5157 20 11.7457 20 12H22C22 11.2398 21.716 10.5436 21.2497 10.0154L19.7503 11.3388ZM12 20C11.7457 20 11.5157 19.9064 11.3388 19.7503L10.0154 21.2497C10.5436 21.716 11.2398 22 12 22V20ZM12.6612 19.7503C12.4843 19.9064 12.2543 20 12 20V22C12.7602 22 13.4564 21.716 13.9846 21.2497L12.6612 19.7503ZM4.33882 12.7503C4.12956 12.5656 4 12.2985 4 12H2C2 12.8962 2.3942 13.7015 3.01535 14.2497L4.33882 12.7503ZM12.7929 4.38419L19.7929 11.3842L21.2071 9.96998L14.2071 2.96998L12.7929 4.38419ZM11.3842 19.7929L4.38419 12.7929L2.96998 14.2071L9.96998 21.2071L11.3842 19.7929ZM19.6158 12.7929L12.6158 19.7929L14.03 21.2071L21.03 14.2071L19.6158 12.7929ZM7 8H7.01V6H7V8Z" fill="#111827"/>
</svg>
